<?xml version="1.0" encoding="UTF-8"?><svg id="Layer_2" xmlns="http://www.w3.org/2000/svg" width="12.083" height="15.1896" viewBox="0 0 12.083 15.1896"><defs><style>.cls-1{fill:#01c9f7;}</style></defs><g id="Layer_1-2"><path class="cls-1" d="M5.4629,10.5596c-1.0155,0-1.9329-.2201-2.7517-.6599-.8194-.4398-1.4757-1.0563-1.9698-1.848-.4944-.7921-.7415-1.7161-.7415-2.7721,0-1.0691.247-2,.7415-2.7921.4941-.7921,1.1503-1.4043,1.9698-1.8378.8188-.4329,1.7362-.6497,2.7517-.6497.9204,0,1.7326.1862,2.4369.5582.7036.3727,1.252.948,1.6448,1.7263.3924.7786.5888,1.7767.5888,2.9951,0,1.2053-.1964,2.1967-.5888,2.975-.3928.7786-.9411,1.3576-1.6448,1.7362-.7043.3793-1.5165.5688-2.4369.5688ZM5.9501,15.1896c-1.029,0-2.0204-.1253-2.975-.3757-.9543-.2507-1.7497-.6263-2.3859-1.127l1.2589-2.2744c.4602.3786,1.0457.6803,1.7566.9036s1.4115.3349,2.1017.3349c1.1237,0,1.9395-.2507,2.4471-.7513.5079-.501.7615-1.2454.7615-2.2336v-1.6451l.2033-2.7415-.0408-2.7615V.1625h3.0056v9.0975c0,2.0306-.528,3.5263-1.5842,4.4879-1.0559.9612-2.5721,1.4418-4.5487,1.4418ZM6.0922,7.9603c.5549,0,1.049-.1115,1.4826-.3349.4332-.2237.7717-.5382,1.0155-.9444.2434-.4063.3655-.8734.3655-1.4013,0-.5411-.122-1.0119-.3655-1.4112-.2438-.3993-.5822-.7109-1.0155-.9342-.4336-.2234-.9276-.3349-1.4826-.3349-.5553,0-1.049.1115-1.4823.3349-.4336.2234-.7753.5349-1.0257.9342-.2507.3993-.3757.8701-.3757,1.4112,0,.528.125.9951.3757,1.4013.2503.4063.5921.7207,1.0257.9444.4332.2234.927.3349,1.4823.3349Z"/></g></svg>